#!OML:ASF E:\inclinewalkrobotboard\Project 1\Capture day 1\Session 1\subject1.ASF
:FULLY-SPECIFIED
:DEGREES
433
root 6.82341 17.3596 24.5036 12.406 1.62 8.53908
lowerback 0.111065 0.145357 -2.37828
upperback 3.90687 0.151522 2.84717
thorax 3.95664 -0.0591706 4.28956
lowerneck -1.86012 2.2167 -2.50266
upperneck 21.7975 3.75489 -2.37101
head 6.95895 1.4374 -0.0997971
rclavicle 2.3059e-014 6.20208e-014
rhumerus -23.4448 -16.7056 -76.455
rradius 27.2572
rwrist 11.6494
rhand -17.824 -36.7172
rfingers 7.12502
rthumb 8.44018 -66.5286
lclavicle 2.3059e-014 6.20208e-014
lhumerus -32.8042 -6.32535 88.926
lradius 21.629
lwrist -23.3521
lhand -25.7181 -23.1655
lfingers 7.12502
lthumb 0.818026 6.81272
rfemur -18.5663 6.05635 10.2513
rtibia 24.2438
rfoot -19.8416 -6.01671
rtoes -22.2398
lfemur -23.6228 -12.3172 -10.3069
ltibia 34.7689
lfoot -22.836 10.1114
ltoes -68.3491
434
root 6.83323 17.3552 24.6355 12.1018 1.22059 8.44711
lowerback 0.15424 0.384871 -2.25871
upperback 3.90703 0.471439 2.74189
thorax 3.90313 0.107447 4.12124
lowerneck 0.681472 2.36669 -2.82411
upperneck 18.6492 3.7024 -2.07309
head 5.50406 1.50023 -0.0111409
rclavicle -3.18055e-015 2.06736e-014
rhumerus -22.8413 -15.8996 -77.7982
rradius 27.6669
rwrist 11.291
rhand -17.7796 -36.6406
rfingers 7.12502
rthumb 8.48305 -66.4502
lclavicle -3.18055e-015 2.06736e-014
lhumerus -33.3742 -4.95331 88.3743
lradius 21.0401
lwrist -24.148
lhand -25.5129 -23.4345
lfingers 7.12502
lthumb 1.01621 6.5428
rfemur -17.6874 6.29036 10.4958
rtibia 24.0554
rfoot -20.1477 -6.1775
rtoes -23.2867
lfemur -24.3969 -12.4333 -9.67764
ltibia 34.4216
lfoot -22.5515 10.507
ltoes -68.2086
435
root 6.84807 17.3462 24.7678 11.8595 0.870549 8.33316
lowerback 0.139756 0.639995 -2.11043
upperback 3.88269 0.811913 2.65348
thorax 3.85779 0.285053 3.95496
lowerneck 1.2786 2.43537 -3.2033
upperneck 18.0041 3.69656 -1.63555
head 5.18736 1.51843 0.173895
rclavicle 5.56597e-015 3.18055e-015
rhumerus -22.1498 -15.1473 -79.0296
rradius 27.8514
rwrist 11.2745
rhand -18.2262 -36.3417
rfingers 7.12502
rthumb 8.05202 -66.1683
lclavicle 5.56597e-015 3.18055e-015
lhumerus -33.9047 -3.71279 87.8874
lradius 20.4293
lwrist -24.9865
lhand -25.455 -23.8216
lfingers 7.12502
lthumb 1.07213 6.15547
rfemur -16.8178 6.59876 10.7523
rtibia 23.7827
rfoot -20.4622 -6.45025
rtoes -23.9497
lfemur -25.2341 -12.4454 -9.02412
ltibia 34.0389
lfoot -22.2087 10.9389
ltoes -68.0671
436
root 6.8696 17.3343 24.9016 11.5137 0.53756 8.3034
lowerback 0.226539 0.864475 -2.07829
upperback 3.87227 1.11332 2.54625
thorax 3.77433 0.440061 3.83168
lowerneck 1.46038 2.49739 -3.15562
upperneck 17.9565 3.75869 -1.55544
head 5.14066 1.55965 0.190176
rclavicle -2.38542e-015 3.18055e-015
rhumerus -21.4323 -14.343 -80.2461
rradius 27.8316
rwrist 11.5901
rhand -17.57 -36.8502
rfingers 7.12502
rthumb 8.68529 -66.6515
lclavicle -2.38542e-015 3.18055e-015
lhumerus -34.5089 -2.70751 87.448
lradius 19.8732
lwrist -25.6169
lhand -25.3674 -23.9296
lfingers 7.12502
lthumb 1.15668 6.04697
rfemur -15.8241 6.97214 10.8996
rtibia 23.5398
rfoot -20.9072 -6.66558
rtoes -23.7696
lfemur -25.8404 -12.4623 -8.54403
ltibia 33.4212
lfoot -21.6873 11.453
ltoes -67.8761
437
root 6.90203 17.3164 25.0528 11.1827 0.517426 8.29101
lowerback 0.0552474 0.942517 -1.98287
upperback 3.90314 1.21986 2.45518
thorax 3.89792 0.49545 3.69029
lowerneck 1.47167 2.55652 -3.42391
upperneck 18.0503 3.79548 -1.18068
head 5.15547 1.5813 0.352949
rclavicle -4.77083e-015 1.90833e-014
rhumerus -20.6454 -13.3755 -81.4794
rradius 27.6779
rwrist 11.8493
rhand -15.7586 -38.0546
rfingers 7.12502
rthumb 10.4331 -67.7758
lclavicle -4.77083e-015 1.90833e-014
lhumerus -35.0792 -1.64185 86.9604
lradius 19.327
lwrist -26.1722
lhand -25.167 -24.0973
lfingers 7.12502
lthumb 1.35028 5.8782
rfemur -14.5518 6.91971 11.0515
rtibia 23.1363
rfoot -21.4338 -6.71385
rtoes -23.9791
lfemur -26.3171 -12.7705 -8.1828
ltibia 32.546
lfoot -20.9694 11.9335
ltoes -67.7713
